# xmcd
#
# Track frame offsets:
#	150
#	19908
#	38316
#	55511
#	68104
#	90205
#	115866
#	132536
#	153903
#	171151
#	188166
#	212626
#
# Disc length: 3069 seconds
#
# Revision: 0
# Processed by: cddbd v1.4PL0 Copyright (c) Steve Scherf et al.
# Submitted via: dBpowerAMP V4.0
#
DISCID=910bfb0c
DTITLE=Wes James - Stranger In A Strange Place
DYEAR=2002
DGENRE=Shristian Country
TTITLE0=Wes James - Stranger In A Strange Place
TTITLE1=Wes James - Wooden Cross
TTITLE2=Wes James - Love Does
TTITLE3=Wes James - Lord You Have My Heart
TTITLE4=Wes James - Put Me First
TTITLE5=Wes James - Mi  Alma Anhela Estar
TTITLE6=Wes James - Give Me Jesus
TTITLE7=Wes James - Worth It All
TTITLE8=Wes James - Man After Your Own Heart
TTITLE9=Wes James - Desperado
TTITLE10=Wes James - I Know Who Holds Tomorrow
TTITLE11=Wes James - On God's Mind  
EXTD=WES JAMES - STRANGER IN A STRANGE PLACE
EXTT0=
EXTT1=
EXTT2=
EXTT3=
EXTT4=
EXTT5=
EXTT6=
EXTT7=
EXTT8=
EXTT9=
EXTT10=
EXTT11=
PLAYORDER=
